<svg width="294.6960127757199" height="291.05781249999995" viewBox="0 0 357.53903534689044 353.125" class="css-1j8o68f">
  <g id="SvgjsG1917"
    transform="matrix(3.389535593902515,0,0,3.389535593902515,-0.12716217636071572,0.09717876805444996)" fill="#000000">
    <path xmlns="http://www.w3.org/2000/svg"
      d="M104.6 41.3a52.2 52.2 0 0 0-3.5-11.2A51.1 51.1 0 0 0 44.3 1a49.6 49.6 0 0 0-5.7 1.5 49.1 49.1 0 0 0-7.9 2.7A51.6 51.6 0 0 0 6.3 77a53.7 53.7 0 0 0 4.1 6.4 57 57 0 0 0 5 5.7 51.7 51.7 0 0 0 55.3 11.5l3.3-1.4 3-1.5a50.9 50.9 0 0 0 5.8-3.8l2.7-2.1 1.2-1.1 1.1-.9 2-1.8.7-.6.6-.7 1.8-2a48.5 48.5 0 0 0 5.9-8.3 50.4 50.4 0 0 0 5.6-14.7 51.6 51.6 0 0 0 .2-20.4zM87.1 88.6l-1.2 1.1-1.2 1.1-2.6 2.1a49.5 49.5 0 0 1-5.7 3.6l-3 1.5-3.2 1.3-4.9 1.6h-.5a50.9 50.9 0 0 1-20.3.1 51.8 51.8 0 0 1-11.1-3.6A50.5 50.5 0 0 1 22.9 91a52 52 0 0 1-9.1-9.4 50.3 50.3 0 0 1-3.7-5.7c-.6-1-1.1-2-1.6-3.1s-1-2.1-1.3-3.2a50.6 50.6 0 0 1 8.6-50.8l.8-.8.5-.6.6-.6 1.2-1.1 2.4-2.1A50.5 50.5 0 0 1 62.4 3.2a48.5 48.5 0 0 1 14.7 5.2 47 47 0 0 1 8.3 5.8l2 1.8.7.6.6.7 1.8 2a49.7 49.7 0 0 1 11.3 22.9 50.8 50.8 0 0 1-.1 20.2 51.6 51.6 0 0 1-3.6 11 50.2 50.2 0 0 1-6.6 10.5l-2.1 2.4zm-44.9 13a50.1 50.1 0 0 1-13.7-5 51.8 51.8 0 0 1-6.2-4 55.2 55.2 0 0 1-5.5-4.8 49.9 49.9 0 0 1-11-53.2c.4-1.1.9-2.1 1.3-3.1l.6-1.3a50.2 50.2 0 0 0-3.4 11 51.3 51.3 0 0 0 2.4 28.5c.4 1.1.9 2.2 1.4 3.2s1 2.1 1.6 3.1a50.6 50.6 0 0 0 3.7 5.8 51.5 51.5 0 0 0 9.2 9.5 50.9 50.9 0 0 0 10.7 6.5 51 51 0 0 0 28.7 3.9 50.3 50.3 0 0 1-19.8-.1zm61.9-39.9a50.2 50.2 0 0 1-5.5 14.7 48.4 48.4 0 0 1-5.8 8.3l-1.8 2-.6.7-.7.6-1.9 1.7h.2l2.3-2.4 2.1-2.5A51.3 51.3 0 0 0 98.9 74a51.4 51.4 0 0 0 3.2-31.6 49.6 49.6 0 0 0-2.5-8.2 49.4 49.4 0 0 0-3.1-6.5 48.7 48.7 0 0 0-5.9-8.3l-1.8-2-.6-.7-.7-.6-2-1.8A49.9 49.9 0 0 0 77.3 8a49.3 49.3 0 0 0-6.5-3.2 49.8 49.8 0 0 0-8.2-2.6A52.2 52.2 0 0 0 49.9 1a50.8 50.8 0 0 1 22.7 3.2l3.2 1.3 3.1 1.6a50.1 50.1 0 0 1 5.7 3.7l2.6 2.1 1.2 1.1 1.2 1.1 2.3 2.3 2.1 2.4a50.4 50.4 0 0 1 6.5 10.5 51.6 51.6 0 0 1 3.6 11 51.1 51.1 0 0 1 0 20.3z">
    </path>
  </g>
  <g id="SvgjsG1918" transform="matrix(1.6542597187758479,0,0,1.6542597187758479,96.21009098428453,43.65260514353207)"
    fill="#000000">
    <metadata xmlns="http://www.w3.org/2000/svg">
      <sfw xmlns="http://ns.adobe.com/SaveForWeb/1.0/">
        <slices>
          <slicesourcebounds width="1449" height="1446.4" y="-1446.7" x="0.5" bottomleftorigin="true">
          </slicesourcebounds>
        </slices>
      </sfw>
    </metadata>
    <path xmlns="http://www.w3.org/2000/svg"
      d="M89.3,87.6c4,0,7.2-3.2,7.2-7.2V19.5c0-4-3.2-7.2-7.2-7.2H10.7c-4,0-7.2,3.2-7.2,7.2v60.9c0,4,3.2,7.2,7.2,7.2H89.3z   M10.7,17.4h78.5c1.2,0,2.2,1,2.2,2.2v10.4H8.6V19.5C8.6,18.3,9.5,17.4,10.7,17.4z M8.6,80.5V34.9h82.9v45.5c0,1.2-1,2.2-2.2,2.2  H10.7C9.5,82.6,8.6,81.7,8.6,80.5z M21.9,23.6c0-1.7,1.4-3,3-3s3,1.4,3,3c0,1.7-1.4,3-3,3S21.9,25.3,21.9,23.6z M31.9,23.6  c0-1.7,1.4-3,3-3s3,1.4,3,3c0,1.7-1.4,3-3,3S31.9,25.3,31.9,23.6z M11.9,23.6c0-1.7,1.4-3,3-3c1.7,0,3,1.4,3,3c0,1.7-1.4,3-3,3  C13.3,26.7,11.9,25.3,11.9,23.6z M62.4,68.8L74,59l-11.6-9.8c-1.1-0.9-1.2-2.5-0.3-3.5c0.9-1.1,2.5-1.2,3.5-0.3l13.8,11.7  c0.6,0.5,0.9,1.2,0.9,1.9s-0.3,1.4-0.9,1.9L65.6,72.6c-0.5,0.4-1,0.6-1.6,0.6c-0.7,0-1.4-0.3-1.9-0.9C61.2,71.3,61.3,69.7,62.4,68.8  z M20.6,60.9c-0.6-0.5-0.9-1.2-0.9-1.9s0.3-1.4,0.9-1.9l13.8-11.7c1.1-0.9,2.6-0.8,3.5,0.3c0.9,1.1,0.8,2.6-0.3,3.5L26,59l11.6,9.8  c1.1,0.9,1.2,2.5,0.3,3.5c-0.5,0.6-1.2,0.9-1.9,0.9c-0.6,0-1.1-0.2-1.6-0.6L20.6,60.9z M41.8,72.7l11.7-29.3c0.5-1.3,2-1.9,3.3-1.4  c1.3,0.5,1.9,2,1.4,3.3L46.4,74.6c-0.4,1-1.3,1.6-2.3,1.6c-0.3,0-0.6-0.1-0.9-0.2C41.9,75.4,41.3,74,41.8,72.7z">
    </path>
  </g>
  <g id="SvgjsG1919" transform="matrix(1.0521792509757215,0,0,1.0521792509757215,76.47476969731464,196.96307081378606)"
    fill="#000000">
    <path
      d="M5.36 40 c-0.6 0 -1.16 0 -1.72 -0.16 c-0.32 -0.08 -0.56 -0.2 -0.76 -0.4 c-0.2 -0.24 -0.36 -0.48 -0.4 -0.76 c-0.04 -0.24 -0.08 -0.44 -0.08 -0.68 l0 -1.16 l0 -10.84 l0 -11 c0 -0.4 0 -0.84 0.04 -1.24 c0 -0.28 0.04 -0.52 0.12 -0.76 c0.16 -0.4 0.4 -0.68 0.8 -0.8 c0.32 -0.12 0.64 -0.16 0.96 -0.16 c0.36 -0.04 0.72 -0.04 1.04 -0.04 l13.56 0 c0.32 0 0.68 0 1.04 0.04 c0.28 0 0.52 0.04 0.76 0.12 c0.56 0.12 0.88 0.52 1 1.04 c0.04 0.2 0.08 0.4 0.08 0.6 l0 2.6 c0 0.16 -0.04 0.32 -0.04 0.48 c-0.12 0.68 -0.6 1.16 -1.28 1.24 c-0.24 0.04 -0.48 0.08 -0.68 0.08 l-1.16 0 l-5.32 0 c-0.36 0 -0.72 0 -1.08 0.04 c-0.32 0 -0.64 0.04 -0.92 0.16 c-0.48 0.16 -0.76 0.48 -0.96 0.92 c0 0.08 -0.04 0.16 -0.08 0.28 c-0.12 0.68 -0.12 1.4 -0.04 2.12 l0.12 0.36 c0.2 0.6 0.6 0.96 1.24 1.08 c0.32 0.08 0.64 0.08 0.96 0.08 l2.32 0 c0.48 0 0.96 0.04 1.44 0.12 c0.16 0.04 0.32 0.04 0.48 0.12 c0.4 0.12 0.72 0.4 0.84 0.84 c0.12 0.32 0.2 0.68 0.2 1.04 l0 2.12 c0 0.32 -0.08 0.64 -0.16 0.96 c-0.16 0.48 -0.48 0.76 -0.96 0.88 c-0.12 0.08 -0.28 0.08 -0.44 0.12 c-0.64 0.04 -1.28 0.12 -1.96 0.12 c-0.6 -0.04 -1.2 -0.04 -1.8 0 c-0.32 0 -0.6 0 -0.88 0.04 c-0.64 0.08 -1.04 0.48 -1.28 1.08 s-0.24 1.24 0 1.88 s0.64 1.04 1.36 1.08 c0.92 0.08 1.84 0.12 2.76 0.16 l4.64 0 c0.44 0 0.84 0 1.28 0.04 c0.24 0.04 0.48 0.08 0.72 0.24 c0.36 0.28 0.6 0.6 0.64 1.04 c0.04 0.16 0.04 0.32 0.04 0.48 l0 2.52 c0 0.2 -0.04 0.44 -0.08 0.68 c-0.12 0.52 -0.44 0.84 -0.92 1 c-0.36 0.12 -0.68 0.16 -1.04 0.16 c-0.28 0.04 -0.6 0.04 -0.88 0.04 l-13.52 0 z M28.789 40 c-0.52 0 -1 0 -1.52 -0.12 c-0.28 -0.08 -0.56 -0.2 -0.76 -0.4 c-0.24 -0.24 -0.4 -0.52 -0.44 -0.84 c-0.04 -0.24 -0.08 -0.44 -0.08 -0.68 l0 -1.16 l0 -10.84 l0 -10.8 l0 -1.28 c0.04 -0.24 0.04 -0.52 0.12 -0.76 c0.12 -0.44 0.44 -0.8 0.88 -0.96 c0.2 -0.04 0.44 -0.08 0.64 -0.12 c0.32 -0.04 0.6 -0.04 0.88 -0.04 l7.64 0 c1.8 0 3.52 0.28 5.24 0.76 c1.92 0.52 3.6 1.4 5.04 2.76 c1.04 1 1.84 2.16 2.4 3.48 c0.6 1.32 0.96 2.76 1.12 4.2 c0.16 0.96 0.28 1.92 0.24 2.88 c-0.04 1.4 -0.2 2.76 -0.52 4.12 c-0.44 1.8 -1.2 3.48 -2.32 4.92 c-1 1.32 -2.2 2.36 -3.64 3.16 c-1.76 0.96 -3.64 1.44 -5.64 1.6 c-1.32 0.12 -2.64 0.12 -3.96 0.12 l-5.32 0 z M35.429 34.36 c0.32 0.04 0.64 0 0.96 -0.08 c2.28 -0.44 3.88 -1.76 4.84 -3.88 c0.56 -1.12 0.8 -2.36 0.88 -3.64 l0 -1.92 c-0.04 -0.96 -0.2 -1.92 -0.48 -2.84 c-0.2 -0.76 -0.52 -1.44 -0.96 -2.08 c-0.4 -0.56 -0.84 -1 -1.4 -1.36 c-0.88 -0.6 -1.92 -0.92 -3 -0.96 c-0.32 -0.04 -0.68 0 -1.04 0.04 c-0.32 0 -0.6 0.16 -0.84 0.4 c-0.32 0.28 -0.52 0.68 -0.56 1.08 c-0.04 0.44 -0.04 0.84 -0.08 1.28 l0 5.6 l0 3.36 c0 0.84 0 1.68 0.04 2.52 c0 0.32 0 0.64 0.04 0.96 c0.12 0.92 0.68 1.44 1.6 1.52 z M64.098 40.5072 c-1.556 -0.12922 -3.0737 -0.45596 -4.5012 -1.112 c-1.8716 -0.8596 -3.3884 -2.1308 -4.4268 -3.9296 c-0.7556 -1.3088 -1.1944 -2.7236 -1.292 -4.2324 c-0.050392 -0.7744 -0.053592 -1.552 -0.056408 -2.3284 c-0.0067968 -2.1352 -0.0023828 -4.2704 -0.0023828 -6.4056 l0 0 l0 -7.2792 c0 -0.35602 0 -0.7116 0.0076172 -1.0676 c0.0048048 -0.22602 0.012422 -0.4532 0.039219 -0.6776 c0.096408 -0.8156 0.5372 -1.2732 1.3608 -1.4104 c0.22238 -0.037188 0.45 -0.059572 0.6756 -0.060352 c1.2292 -0.0051952 2.4584 -0.0051952 3.688 0.0019922 c0.2248 0.0012109 0.45404 0.022812 0.67404 0.0684 c0.624 0.13 1.0388 0.498 1.2084 1.1228 c0.093592 0.3452 0.1384 0.698 0.14398 1.0552 c0.005586 0.35558 0.0083984 0.7116 0.0083984 1.0676 c0.00078124 4.432 -0.00042968 8.8644 0.0019531 13.296 c0 0.6472 0.010391 1.2944 0.027578 1.9408 c0.018398 0.6848 0.16121 1.3484 0.39043 1.9924 c0.1532 0.4292 0.36 0.82884 0.6644 1.1752 c0.5852 0.6664 1.3384 1.0008 2.198 1.1208 c0.38641 0.053984 0.7744 0.027578 1.1596 -0.038828 c1.1792 -0.20199 1.9836 -0.89436 2.51 -1.936 c0.24961 -0.494 0.39641 -1.024 0.44564 -1.5788 c0.085588 -0.9668 0.16078 -1.9324 0.1584 -2.9052 c-0.010781 -4.4324 -0.0051952 -8.8648 -0.0035938 -13.297 c0 -0.4528 0.008008 -0.906 0.021992 -1.3584 c0.008008 -0.25922 0.046796 -0.51564 0.1448 -0.7592 c0.15359 -0.38121 0.42 -0.6496 0.8088 -0.7844 c0.3384 -0.11719 0.6912 -0.1784 1.0484 -0.17961 c1.2616 -0.0051952 2.5232 -0.0071876 3.7848 0.0048048 c0.25558 0.0028125 0.5172 0.047616 0.7648 0.1148 c0.6564 0.1784 1.0464 0.6188 1.1648 1.2876 c0.039219 0.2216 0.050428 0.45 0.057616 0.6756 c0.011211 0.35558 0.01 0.7116 0.01 1.0676 c0 4.4644 0.00078124 8.9292 -0.00082032 13.394 c0 0.6148 0.005586 1.23 -0.021602 1.844 c-0.056016 1.2676 -0.26801 2.5084 -0.7232 3.6988 c-0.4324 1.1304 -1.0468 2.142 -1.9016 3.0128 c-0.7536 0.7676 -1.5612 1.452 -2.5156 1.9588 c-0.8624 0.4584 -1.768 0.7988 -2.714 1.0328 c-1.6468 0.4076 -3.3208 0.548 -5.0088 0.4076 z M82.56700000000001 40 c-0.32 0 -0.64 -0.04 -0.96 -0.12 c-0.16 0 -0.32 -0.04 -0.48 -0.12 c-0.4 -0.16 -0.64 -0.48 -0.68 -0.96 c0 -0.2 0 -0.44 0.08 -0.68 c0.08 -0.4 0.2 -0.8 0.32 -1.2 c1.16 -3.4 2.28 -6.84 3.4 -10.28 c1 -2.96 1.96 -5.92 2.92 -8.88 c0.4 -1.16 0.76 -2.32 1.16 -3.48 c0.12 -0.36 0.24 -0.68 0.4 -1 c0.32 -0.76 0.92 -1.12 1.72 -1.24 c0.28 -0.04 0.56 -0.04 0.88 -0.04 l1.92 0 l3.76 0 c0.36 0 0.72 0.04 1.08 0.08 c0.68 0.08 1.2 0.44 1.52 1.04 c0.16 0.36 0.32 0.68 0.44 1.08 c0.44 1.2 0.8 2.44 1.2 3.64 c0.44 1.28 0.84 2.52 1.24 3.76 c0.88 2.72 1.8 5.4 2.68 8.08 c0.8 2.44 1.6 4.92 2.4 7.36 c0.12 0.32 0.2 0.68 0.28 1.04 c0.08 0.2 0.08 0.44 0.12 0.64 c0 0.48 -0.28 0.88 -0.72 1.04 c-0.36 0.16 -0.68 0.2 -1.04 0.2 c-0.44 0.04 -0.84 0.04 -1.28 0.04 l-0.76 0 l-1.56 0 c-0.32 -0.04 -0.68 -0.08 -1.04 -0.12 c-0.76 -0.12 -1.28 -0.56 -1.56 -1.28 c-0.12 -0.28 -0.24 -0.6 -0.32 -0.88 c-0.12 -0.36 -0.24 -0.68 -0.36 -1 c-0.36 -0.84 -0.96 -1.36 -1.88 -1.44 c-0.32 -0.04 -0.6 -0.04 -0.88 -0.04 l-4.64 0 c-0.44 0 -0.84 0 -1.24 0.08 c-0.68 0.12 -1.12 0.48 -1.44 1.04 c-0.24 0.4 -0.36 0.84 -0.52 1.28 c-0.08 0.32 -0.2 0.68 -0.32 1 c-0.12 0.24 -0.24 0.44 -0.44 0.64 c-0.24 0.28 -0.56 0.48 -0.96 0.56 c-0.4 0.12 -0.84 0.16 -1.24 0.16 l-3.2 0 z M94.087 29.64 c0.44 -0.04 0.8 -0.04 1.16 -0.04 c0.28 -0.04 0.56 -0.08 0.84 -0.2 c0.4 -0.2 0.68 -0.48 0.72 -0.96 c0.04 -0.4 -0.04 -0.84 -0.12 -1.24 l-0.48 -1.68 c-0.28 -0.96 -0.56 -1.88 -0.84 -2.84 c-0.08 -0.32 -0.2 -0.64 -0.32 -0.92 c-0.08 -0.16 -0.2 -0.32 -0.32 -0.48 c-0.36 -0.4 -0.76 -0.4 -1.08 0 c-0.12 0.2 -0.24 0.4 -0.32 0.6 c-0.16 0.32 -0.28 0.64 -0.36 1 c-0.4 1.4 -0.8 2.76 -1.2 4.16 c-0.04 0.24 -0.12 0.44 -0.12 0.68 c-0.04 0.2 -0.04 0.44 -0.04 0.64 c0 0.32 0.16 0.56 0.36 0.76 c0.28 0.28 0.6 0.4 0.96 0.44 c0.4 0.04 0.84 0.04 1.16 0.08 z M133.476 40.56 c-1.64 -0.12 -3.2 -0.48 -4.64 -1.28 c-2.16 -1.16 -3.72 -2.84 -4.64 -5.12 c-0.2 -0.44 -0.36 -0.88 -0.52 -1.36 c-0.12 -0.28 -0.24 -0.6 -0.36 -0.88 c-0.28 -0.52 -0.72 -0.84 -1.32 -0.92 c-0.24 0 -0.52 -0.04 -0.76 0 c-0.72 0.08 -1.32 0.64 -1.44 1.36 c-0.04 0.2 -0.08 0.44 -0.08 0.68 l0 1.16 l0 3.28 c-0.04 0.44 -0.04 0.84 -0.16 1.24 c-0.04 0.16 -0.08 0.32 -0.16 0.48 c-0.16 0.32 -0.44 0.52 -0.8 0.64 c-0.4 0.12 -0.8 0.16 -1.24 0.16 l-3.2 0 c-0.36 0 -0.76 -0.04 -1.12 -0.16 c-0.56 -0.16 -0.92 -0.52 -1.04 -1.04 c-0.08 -0.44 -0.12 -0.84 -0.16 -1.24 l0 -1.08 l0 -10.56 l0 -10.64 c0 -0.56 0 -1.16 0.12 -1.72 c0.04 -0.2 0.04 -0.4 0.12 -0.56 c0.16 -0.44 0.44 -0.72 0.88 -0.84 c0.24 -0.08 0.52 -0.12 0.76 -0.12 c0.28 -0.04 0.52 -0.04 0.8 -0.04 l7.92 0 c1.28 0 2.56 0.16 3.84 0.4 c0.92 0.16 1.84 0.44 2.68 0.8 c0.44 0.16 0.84 0.36 1.24 0.56 c1.16 0.56 2.08 1.4 2.84 2.4 c0.76 0.96 1.16 2.04 1.36 3.2 c0.08 0.36 0.12 0.76 0.16 1.12 c0 0.24 0.04 0.48 0 0.68 c-0.08 1.08 -0.24 2.12 -0.56 3.16 c-0.4 1.12 -1.04 2.12 -1.92 2.96 c-0.4 0.4 -0.84 0.72 -1.24 1.08 c-0.16 0.16 -0.36 0.32 -0.52 0.48 c-0.6 0.6 -0.72 1.32 -0.44 2.12 c0.28 0.72 0.8 1.24 1.44 1.64 c0.64 0.36 1.28 0.6 2 0.8 c0.32 0.08 0.68 0.16 1.04 0.24 c0.92 0.2 1.32 0.76 1.4 1.68 c0.04 0.16 0.04 0.32 0.04 0.48 l0 2.64 c0 0.28 -0.04 0.56 -0.08 0.84 c-0.12 0.56 -0.48 0.92 -1 1.12 c-0.4 0.12 -0.84 0.2 -1.24 0.16 z M121.39600000000002 25.72 c0.96 0.04 1.88 -0.16 2.72 -0.6 c0.72 -0.4 1.28 -0.96 1.72 -1.64 c0.08 -0.2 0.16 -0.36 0.24 -0.56 c0.64 -1.96 -0.2 -4 -2.12 -4.8 c-0.36 -0.16 -0.76 -0.28 -1.16 -0.4 c-0.56 -0.12 -1.08 -0.16 -1.64 -0.08 c-0.68 0.08 -1.12 0.44 -1.32 1.12 c-0.08 0.28 -0.12 0.6 -0.12 0.96 l0 1.92 l0 1.92 c0 0.28 0 0.52 0.08 0.76 c0.12 0.68 0.68 1.4 1.6 1.4 z M142.185 40 c-0.52 0 -1 0 -1.52 -0.12 c-0.28 -0.08 -0.56 -0.2 -0.76 -0.4 c-0.24 -0.24 -0.4 -0.52 -0.44 -0.84 c-0.04 -0.24 -0.08 -0.44 -0.08 -0.68 l0 -1.16 l0 -10.84 l0 -10.8 l0 -1.28 c0.04 -0.24 0.04 -0.52 0.12 -0.76 c0.12 -0.44 0.44 -0.8 0.88 -0.96 c0.2 -0.04 0.44 -0.08 0.64 -0.12 c0.32 -0.04 0.6 -0.04 0.88 -0.04 l7.64 0 c1.8 0 3.52 0.28 5.24 0.76 c1.92 0.52 3.6 1.4 5.04 2.76 c1.04 1 1.84 2.16 2.4 3.48 c0.6 1.32 0.96 2.76 1.12 4.2 c0.16 0.96 0.28 1.92 0.24 2.88 c-0.04 1.4 -0.2 2.76 -0.52 4.12 c-0.44 1.8 -1.2 3.48 -2.32 4.92 c-1 1.32 -2.2 2.36 -3.64 3.16 c-1.76 0.96 -3.64 1.44 -5.64 1.6 c-1.32 0.12 -2.64 0.12 -3.96 0.12 l-5.32 0 z M148.82500000000002 34.36 c0.32 0.04 0.64 0 0.96 -0.08 c2.28 -0.44 3.88 -1.76 4.84 -3.88 c0.56 -1.12 0.8 -2.36 0.88 -3.64 l0 -1.92 c-0.04 -0.96 -0.2 -1.92 -0.48 -2.84 c-0.2 -0.76 -0.52 -1.44 -0.96 -2.08 c-0.4 -0.56 -0.84 -1 -1.4 -1.36 c-0.88 -0.6 -1.92 -0.92 -3 -0.96 c-0.32 -0.04 -0.68 0 -1.04 0.04 c-0.32 0 -0.6 0.16 -0.84 0.4 c-0.32 0.28 -0.52 0.68 -0.56 1.08 c-0.04 0.44 -0.04 0.84 -0.08 1.28 l0 5.6 l0 3.36 c0 0.84 0 1.68 0.04 2.52 c0 0.32 0 0.64 0.04 0.96 c0.12 0.92 0.68 1.44 1.6 1.52 z M178.61400000000003 40.52 c-0.92 -0.08 -1.8 -0.2 -2.68 -0.36 c-1.64 -0.28 -3.12 -0.88 -4.48 -1.76 c-1.6 -1 -2.8 -2.36 -3.68 -4.04 c-0.8 -1.48 -1.24 -3.04 -1.52 -4.68 c-0.2 -1.2 -0.24 -2.44 -0.24 -3.68 l0 -1.24 c0.04 -1.6 0.36 -3.16 0.8 -4.68 c0.44 -1.44 1.12 -2.76 2.04 -3.96 c0.8 -1.08 1.76 -1.96 2.88 -2.72 c1.92 -1.2 4 -1.88 6.28 -1.96 l1.84 0 c1.92 0.08 3.8 0.48 5.56 1.24 c1.88 0.8 3.44 2.08 4.6 3.76 c1 1.48 1.64 3.16 2 4.92 c0.44 2.04 0.56 4.16 0.4 6.24 c-0.2 2.36 -0.72 4.6 -1.88 6.68 c-1.6 2.96 -4.04 4.92 -7.32 5.76 c-1 0.28 -2.04 0.44 -3.04 0.48 c-0.52 0.04 -1.04 0.04 -1.56 0 z M178.05400000000003 34.64 c1.2 0.32 2.32 0.2 3.36 -0.52 c0.36 -0.24 0.68 -0.56 0.96 -0.92 c0.32 -0.44 0.6 -0.92 0.84 -1.44 c0.48 -1.12 0.76 -2.32 0.88 -3.56 l0.12 -1.44 c0.04 -0.4 0.04 -0.84 0.04 -1.24 c-0.08 -1.16 -0.16 -2.32 -0.4 -3.48 c-0.16 -0.84 -0.44 -1.68 -0.88 -2.44 c-0.24 -0.52 -0.56 -0.96 -0.96 -1.32 c-0.68 -0.6 -1.44 -1 -2.32 -1.12 c-1.24 -0.16 -2.32 0.2 -3.2 1.08 c-0.68 0.64 -1.12 1.4 -1.44 2.28 c-0.28 0.76 -0.52 1.6 -0.64 2.4 c-0.12 1 -0.24 2 -0.2 2.96 c-0.04 0.96 0.04 1.84 0.16 2.76 c0.08 0.84 0.28 1.64 0.52 2.44 c0.2 0.64 0.48 1.2 0.84 1.76 c0.6 0.84 1.32 1.48 2.32 1.8 z">
    </path>
  </g>
  <g id="SvgjsG1920" transform="matrix(1.4200916225190354,0,0,1.4200916225190354,78.09114146654645,232.9589045926863)"
    fill="#000000">
    <path
      d="M2.76 40 c-0.32 0 -0.64 -0.04 -0.96 -0.12 c-0.16 0 -0.32 -0.04 -0.48 -0.12 c-0.4 -0.16 -0.64 -0.48 -0.68 -0.96 c0 -0.2 0 -0.44 0.08 -0.68 c0.08 -0.4 0.2 -0.8 0.32 -1.2 c1.16 -3.4 2.28 -6.84 3.4 -10.28 c1 -2.96 1.96 -5.92 2.92 -8.88 c0.4 -1.16 0.76 -2.32 1.16 -3.48 c0.12 -0.36 0.24 -0.68 0.4 -1 c0.32 -0.76 0.92 -1.12 1.72 -1.24 c0.28 -0.04 0.56 -0.04 0.88 -0.04 l1.92 0 l3.76 0 c0.36 0 0.72 0.04 1.08 0.08 c0.68 0.08 1.2 0.44 1.52 1.04 c0.16 0.36 0.32 0.68 0.44 1.08 c0.44 1.2 0.8 2.44 1.2 3.64 c0.44 1.28 0.84 2.52 1.24 3.76 c0.88 2.72 1.8 5.4 2.68 8.08 c0.8 2.44 1.6 4.92 2.4 7.36 c0.12 0.32 0.2 0.68 0.28 1.04 c0.08 0.2 0.08 0.44 0.12 0.64 c0 0.48 -0.28 0.88 -0.72 1.04 c-0.36 0.16 -0.68 0.2 -1.04 0.2 c-0.44 0.04 -0.84 0.04 -1.28 0.04 l-0.76 0 l-1.56 0 c-0.32 -0.04 -0.68 -0.08 -1.04 -0.12 c-0.76 -0.12 -1.28 -0.56 -1.56 -1.28 c-0.12 -0.28 -0.24 -0.6 -0.32 -0.88 c-0.12 -0.36 -0.24 -0.68 -0.36 -1 c-0.36 -0.84 -0.96 -1.36 -1.88 -1.44 c-0.32 -0.04 -0.6 -0.04 -0.88 -0.04 l-4.64 0 c-0.44 0 -0.84 0 -1.24 0.08 c-0.68 0.12 -1.12 0.48 -1.44 1.04 c-0.24 0.4 -0.36 0.84 -0.52 1.28 c-0.08 0.32 -0.2 0.68 -0.32 1 c-0.12 0.24 -0.24 0.44 -0.44 0.64 c-0.24 0.28 -0.56 0.48 -0.96 0.56 c-0.4 0.12 -0.84 0.16 -1.24 0.16 l-3.2 0 z M14.28 29.64 c0.44 -0.04 0.8 -0.04 1.16 -0.04 c0.28 -0.04 0.56 -0.08 0.84 -0.2 c0.4 -0.2 0.68 -0.48 0.72 -0.96 c0.04 -0.4 -0.04 -0.84 -0.12 -1.24 l-0.48 -1.68 c-0.28 -0.96 -0.56 -1.88 -0.84 -2.84 c-0.08 -0.32 -0.2 -0.64 -0.32 -0.92 c-0.08 -0.16 -0.2 -0.32 -0.32 -0.48 c-0.36 -0.4 -0.76 -0.4 -1.08 0 c-0.12 0.2 -0.24 0.4 -0.32 0.6 c-0.16 0.32 -0.28 0.64 -0.36 1 c-0.4 1.4 -0.8 2.76 -1.2 4.16 c-0.04 0.24 -0.12 0.44 -0.12 0.68 c-0.04 0.2 -0.04 0.44 -0.04 0.64 c0 0.32 0.16 0.56 0.36 0.76 c0.28 0.28 0.6 0.4 0.96 0.44 c0.4 0.04 0.84 0.04 1.16 0.08 z M53.669 40.56 c-1.64 -0.12 -3.2 -0.48 -4.64 -1.28 c-2.16 -1.16 -3.72 -2.84 -4.64 -5.12 c-0.2 -0.44 -0.36 -0.88 -0.52 -1.36 c-0.12 -0.28 -0.24 -0.6 -0.36 -0.88 c-0.28 -0.52 -0.72 -0.84 -1.32 -0.92 c-0.24 0 -0.52 -0.04 -0.76 0 c-0.72 0.08 -1.32 0.64 -1.44 1.36 c-0.04 0.2 -0.08 0.44 -0.08 0.68 l0 1.16 l0 3.28 c-0.04 0.44 -0.04 0.84 -0.16 1.24 c-0.04 0.16 -0.08 0.32 -0.16 0.48 c-0.16 0.32 -0.44 0.52 -0.8 0.64 c-0.4 0.12 -0.8 0.16 -1.24 0.16 l-3.2 0 c-0.36 0 -0.76 -0.04 -1.12 -0.16 c-0.56 -0.16 -0.92 -0.52 -1.04 -1.04 c-0.08 -0.44 -0.12 -0.84 -0.16 -1.24 l0 -1.08 l0 -10.56 l0 -10.64 c0 -0.56 0 -1.16 0.12 -1.72 c0.04 -0.2 0.04 -0.4 0.12 -0.56 c0.16 -0.44 0.44 -0.72 0.88 -0.84 c0.24 -0.08 0.52 -0.12 0.76 -0.12 c0.28 -0.04 0.52 -0.04 0.8 -0.04 l7.92 0 c1.28 0 2.56 0.16 3.84 0.4 c0.92 0.16 1.84 0.44 2.68 0.8 c0.44 0.16 0.84 0.36 1.24 0.56 c1.16 0.56 2.08 1.4 2.84 2.4 c0.76 0.96 1.16 2.04 1.36 3.2 c0.08 0.36 0.12 0.76 0.16 1.12 c0 0.24 0.04 0.48 0 0.68 c-0.08 1.08 -0.24 2.12 -0.56 3.16 c-0.4 1.12 -1.04 2.12 -1.92 2.96 c-0.4 0.4 -0.84 0.72 -1.24 1.08 c-0.16 0.16 -0.36 0.32 -0.52 0.48 c-0.6 0.6 -0.72 1.32 -0.44 2.12 c0.28 0.72 0.8 1.24 1.44 1.64 c0.64 0.36 1.28 0.6 2 0.8 c0.32 0.08 0.68 0.16 1.04 0.24 c0.92 0.2 1.32 0.76 1.4 1.68 c0.04 0.16 0.04 0.32 0.04 0.48 l0 2.64 c0 0.28 -0.04 0.56 -0.08 0.84 c-0.12 0.56 -0.48 0.92 -1 1.12 c-0.4 0.12 -0.84 0.2 -1.24 0.16 z M41.589 25.72 c0.96 0.04 1.88 -0.16 2.72 -0.6 c0.72 -0.4 1.28 -0.96 1.72 -1.64 c0.08 -0.2 0.16 -0.36 0.24 -0.56 c0.64 -1.96 -0.2 -4 -2.12 -4.8 c-0.36 -0.16 -0.76 -0.28 -1.16 -0.4 c-0.56 -0.12 -1.08 -0.16 -1.64 -0.08 c-0.68 0.08 -1.12 0.44 -1.32 1.12 c-0.08 0.28 -0.12 0.6 -0.12 0.96 l0 1.92 l0 1.92 c0 0.28 0 0.52 0.08 0.76 c0.12 0.68 0.68 1.4 1.6 1.4 z M59.937999999999995 40 c-0.32 0 -0.64 -0.04 -0.96 -0.12 c-0.16 0 -0.32 -0.04 -0.48 -0.12 c-0.4 -0.16 -0.64 -0.48 -0.68 -0.96 c0 -0.2 0 -0.44 0.08 -0.68 c0.08 -0.4 0.2 -0.8 0.32 -1.2 c1.16 -3.4 2.28 -6.84 3.4 -10.28 c1 -2.96 1.96 -5.92 2.92 -8.88 c0.4 -1.16 0.76 -2.32 1.16 -3.48 c0.12 -0.36 0.24 -0.68 0.4 -1 c0.32 -0.76 0.92 -1.12 1.72 -1.24 c0.28 -0.04 0.56 -0.04 0.88 -0.04 l1.92 0 l3.76 0 c0.36 0 0.72 0.04 1.08 0.08 c0.68 0.08 1.2 0.44 1.52 1.04 c0.16 0.36 0.32 0.68 0.44 1.08 c0.44 1.2 0.8 2.44 1.2 3.64 c0.44 1.28 0.84 2.52 1.24 3.76 c0.88 2.72 1.8 5.4 2.68 8.08 c0.8 2.44 1.6 4.92 2.4 7.36 c0.12 0.32 0.2 0.68 0.28 1.04 c0.08 0.2 0.08 0.44 0.12 0.64 c0 0.48 -0.28 0.88 -0.72 1.04 c-0.36 0.16 -0.68 0.2 -1.04 0.2 c-0.44 0.04 -0.84 0.04 -1.28 0.04 l-0.76 0 l-1.56 0 c-0.32 -0.04 -0.68 -0.08 -1.04 -0.12 c-0.76 -0.12 -1.28 -0.56 -1.56 -1.28 c-0.12 -0.28 -0.24 -0.6 -0.32 -0.88 c-0.12 -0.36 -0.24 -0.68 -0.36 -1 c-0.36 -0.84 -0.96 -1.36 -1.88 -1.44 c-0.32 -0.04 -0.6 -0.04 -0.88 -0.04 l-4.64 0 c-0.44 0 -0.84 0 -1.24 0.08 c-0.68 0.12 -1.12 0.48 -1.44 1.04 c-0.24 0.4 -0.36 0.84 -0.52 1.28 c-0.08 0.32 -0.2 0.68 -0.32 1 c-0.12 0.24 -0.24 0.44 -0.44 0.64 c-0.24 0.28 -0.56 0.48 -0.96 0.56 c-0.4 0.12 -0.84 0.16 -1.24 0.16 l-3.2 0 z M71.458 29.64 c0.44 -0.04 0.8 -0.04 1.16 -0.04 c0.28 -0.04 0.56 -0.08 0.84 -0.2 c0.4 -0.2 0.68 -0.48 0.72 -0.96 c0.04 -0.4 -0.04 -0.84 -0.12 -1.24 l-0.48 -1.68 c-0.28 -0.96 -0.56 -1.88 -0.84 -2.84 c-0.08 -0.32 -0.2 -0.64 -0.32 -0.92 c-0.08 -0.16 -0.2 -0.32 -0.32 -0.48 c-0.36 -0.4 -0.76 -0.4 -1.08 0 c-0.12 0.2 -0.24 0.4 -0.32 0.6 c-0.16 0.32 -0.28 0.64 -0.36 1 c-0.4 1.4 -0.8 2.76 -1.2 4.16 c-0.04 0.24 -0.12 0.44 -0.12 0.68 c-0.04 0.2 -0.04 0.44 -0.04 0.64 c0 0.32 0.16 0.56 0.36 0.76 c0.28 0.28 0.6 0.4 0.96 0.44 c0.4 0.04 0.84 0.04 1.16 0.08 z M101.172 39.9960156 c-1.0304 0.005586 -2.0614 0.0053516 -3.0918 -0.00023438 c-0.38719 -0.0019922 -0.77 -0.056796 -1.146 -0.1548 c-0.5448 -0.1416 -0.9092 -0.4772 -1.058 -1.0192 c-0.076016 -0.27762 -0.1232 -0.5664 -0.15121 -0.8532 c-0.028398 -0.28762 -0.021602 -0.57884 -0.022383 -0.86844 c-0.0019922 -1.1596 -0.00078124 -2.3188 -0.00078124 -3.4784 l-0.0019922 0 c0 -1.0628 0.0019922 -2.1252 -0.00082032 -3.188 c-0.0012109 -0.35442 -0.0040236 -0.7092 -0.025625 -1.0624 c-0.041992 -0.6816 -0.1952 -1.3368 -0.5076 -1.9496 c-0.2784 -0.5448 -0.5472 -1.0948 -0.8356 -1.634 c-0.8512 -1.5896 -1.7076 -3.1764 -2.5664 -4.762 c-0.5216 -0.9624 -1.0516 -1.9204 -1.5776 -2.8804 c-0.1084 -0.19801 -0.21602 -0.39602 -0.32242 -0.5948 c-0.4564 -0.8512 -0.9148 -1.7016 -1.3668 -2.5552 c-0.19558 -0.37 -0.3832 -0.7444 -0.5628 -1.1224 c-0.11121 -0.23398 -0.1684 -0.48476 -0.16762 -0.74796 c0.00078124 -0.4336 0.20719 -0.73596 0.592 -0.914 c0.14398 -0.066796 0.30238 -0.11641 0.45956 -0.13801 c0.25442 -0.034805 0.5128 -0.054412 0.7696 -0.056016 c1.1272 -0.0060156 2.2544 -0.0092188 3.3816 0 c0.32039 0.0023828 0.6424 0.037188 0.9608 0.08078 c0.7248 0.099608 1.2396 0.5096 1.588 1.1356 c0.15641 0.28078 0.29562 0.57276 0.4212 0.8688 c0.5284 1.2448 1.0484 2.4932 1.5716 3.7404 c0.24922 0.594 0.49364 1.1896 0.75004 1.7804 c0.11559 0.2652 0.24719 0.5244 0.38641 0.778 c0.12559 0.22879 0.30879 0.41 0.5268 0.5556 c0.25719 0.17121 0.65756 0.17199 0.91596 0.00039062 c0.21879 -0.1452 0.39558 -0.33039 0.51956 -0.56116 c0.091212 -0.17 0.1748 -0.3448 0.25039 -0.5224 c0.63 -1.4816 1.2572 -2.9644 1.8856 -4.4468 c0.25121 -0.5928 0.5032 -1.1856 0.7556 -1.778 c0.16641 -0.39039 0.4036 -0.7304 0.7148 -1.0212 c0.24078 -0.2252 0.5136 -0.38281 0.8336 -0.4648 c0.3452 -0.0884 0.6948 -0.14199 1.0504 -0.14277 c1.2236 -0.0032031 2.4476 -0.008008 3.6712 0.0035938 c0.28719 0.0028125 0.5768 0.052812 0.8596 0.10801 c0.15441 0.03 0.30801 0.1 0.4428 0.18281 c0.26281 0.16078 0.4216 0.4024 0.4132 0.7184 c-0.0048048 0.19078 -0.019609 0.39078 -0.081992 0.5684 c-0.10602 0.30238 -0.23562 0.59956 -0.38602 0.88276 c-0.7556 1.4216 -1.5184 2.8396 -2.2832 4.256 c-1.1324 2.0968 -2.2716 4.1896 -3.4012 6.2876 c-0.38199 0.7088 -0.738 1.4312 -1.1164 2.1416 c-0.4332 0.8128 -0.6604 1.672 -0.64756 2.5956 c0.0071876 0.5152 -0.0092188 1.0304 -0.0092188 1.546 c-0.0016016 1.9 -0.0016016 3.8 -0.00039062 5.7 c0 0.5812 -0.033594 1.1588 -0.15758 1.7284 c-0.0416 0.19039 -0.10641 0.3716 -0.21961 0.532 c-0.19238 0.2732 -0.45 0.4576 -0.7716 0.5484 c-0.4052 0.11398 -0.82 0.17438 -1.24 0.17676 z M116.07600000000001 40 c-0.32 0 -0.64 -0.04 -0.96 -0.12 c-0.16 0 -0.32 -0.04 -0.48 -0.12 c-0.4 -0.16 -0.64 -0.48 -0.68 -0.96 c0 -0.2 0 -0.44 0.08 -0.68 c0.08 -0.4 0.2 -0.8 0.32 -1.2 c1.16 -3.4 2.28 -6.84 3.4 -10.28 c1 -2.96 1.96 -5.92 2.92 -8.88 c0.4 -1.16 0.76 -2.32 1.16 -3.48 c0.12 -0.36 0.24 -0.68 0.4 -1 c0.32 -0.76 0.92 -1.12 1.72 -1.24 c0.28 -0.04 0.56 -0.04 0.88 -0.04 l1.92 0 l3.76 0 c0.36 0 0.72 0.04 1.08 0.08 c0.68 0.08 1.2 0.44 1.52 1.04 c0.16 0.36 0.32 0.68 0.44 1.08 c0.44 1.2 0.8 2.44 1.2 3.64 c0.44 1.28 0.84 2.52 1.24 3.76 c0.88 2.72 1.8 5.4 2.68 8.08 c0.8 2.44 1.6 4.92 2.4 7.36 c0.12 0.32 0.2 0.68 0.28 1.04 c0.08 0.2 0.08 0.44 0.12 0.64 c0 0.48 -0.28 0.88 -0.72 1.04 c-0.36 0.16 -0.68 0.2 -1.04 0.2 c-0.44 0.04 -0.84 0.04 -1.28 0.04 l-0.76 0 l-1.56 0 c-0.32 -0.04 -0.68 -0.08 -1.04 -0.12 c-0.76 -0.12 -1.28 -0.56 -1.56 -1.28 c-0.12 -0.28 -0.24 -0.6 -0.32 -0.88 c-0.12 -0.36 -0.24 -0.68 -0.36 -1 c-0.36 -0.84 -0.96 -1.36 -1.88 -1.44 c-0.32 -0.04 -0.6 -0.04 -0.88 -0.04 l-4.64 0 c-0.44 0 -0.84 0 -1.24 0.08 c-0.68 0.12 -1.12 0.48 -1.44 1.04 c-0.24 0.4 -0.36 0.84 -0.52 1.28 c-0.08 0.32 -0.2 0.68 -0.32 1 c-0.12 0.24 -0.24 0.44 -0.44 0.64 c-0.24 0.28 -0.56 0.48 -0.96 0.56 c-0.4 0.12 -0.84 0.16 -1.24 0.16 l-3.2 0 z M127.596 29.64 c0.44 -0.04 0.8 -0.04 1.16 -0.04 c0.28 -0.04 0.56 -0.08 0.84 -0.2 c0.4 -0.2 0.68 -0.48 0.72 -0.96 c0.04 -0.4 -0.04 -0.84 -0.12 -1.24 l-0.48 -1.68 c-0.28 -0.96 -0.56 -1.88 -0.84 -2.84 c-0.08 -0.32 -0.2 -0.64 -0.32 -0.92 c-0.08 -0.16 -0.2 -0.32 -0.32 -0.48 c-0.36 -0.4 -0.76 -0.4 -1.08 0 c-0.12 0.2 -0.24 0.4 -0.32 0.6 c-0.16 0.32 -0.28 0.64 -0.36 1 c-0.4 1.4 -0.8 2.76 -1.2 4.16 c-0.04 0.24 -0.12 0.44 -0.12 0.68 c-0.04 0.2 -0.04 0.44 -0.04 0.64 c0 0.32 0.16 0.56 0.36 0.76 c0.28 0.28 0.6 0.4 0.96 0.44 c0.4 0.04 0.84 0.04 1.16 0.08 z">
    </path>
  </g>
</svg>